<svg xmlns="http://www.w3.org/2000/svg" xmlns:xlink="http://www.w3.org/1999/xlink" width="247.808" height="71.597" viewBox="0 0 247.808 71.597"><defs><style>.a,.b,.e{fill:#635ea8;}.a{stroke:#707070;}.c{fill:none;stroke:#635ea8;stroke-linecap:round;stroke-width:5px;}.d{clip-path:url(#a);}.e{font-size:37px;font-family:Montserrat-SemiBold, Montserrat;font-weight:600;}</style><clipPath id="a"><rect class="a" width="179" height="59" transform="translate(0.306 0.047)"/></clipPath></defs><g transform="translate(-62.192 -370.365)"><path class="b" d="M11.969,0A11.969,11.969,0,1,1,0,11.969,11.969,11.969,0,0,1,11.969,0Z" transform="translate(79.983 394.093)"/><g transform="translate(65.691 373.901)"><path class="c" d="M-801.586,2292.567l26.057-26.057,26.057,26.057" transform="translate(801.622 -2266.51)"/><path class="b" d="M-801.657,2292.637s15.207-14.8,26.1-14.8,26.057,14.749,26.057,14.749l-26.057-26.078Z" transform="translate(801.657 -2266.511)"/></g><g transform="translate(65.691 412.3)"><path class="c" d="M-801.586,2266.509l26.057,26.056,26.057-26.056" transform="translate(801.622 -2266.439)"/><path class="b" d="M-801.657,2266.512s15.207,14.8,26.1,14.8,26.057-14.749,26.057-14.749l-26.057,26.079Z" transform="translate(801.657 -2266.512)"/></g><g class="d" transform="translate(130.694 378.953)"><text class="e" transform="translate(4.249 39.684)"><tspan x="0" y="0">Mounae</tspan></text></g></g></svg>