<svg xmlns="http://www.w3.org/2000/svg" width="54" height="53" viewBox="0 0 54 53"><defs><style>.a{fill:#f6f6fe;}.b{fill:#b0aed3;}.c{fill:#635ea8;}</style></defs><g transform="translate(-0.401 0)"><ellipse class="a" cx="27" cy="26.5" rx="27" ry="26.5" transform="translate(0.401 0)"/><g transform="translate(12.171 16.028)"><g transform="translate(8.249 0)"><path class="b" d="M327.388,232.352H316.7a1.389,1.389,0,0,1-1.335-1.773l1.6-5.572A1.389,1.389,0,0,1,318.3,224h7.489a1.389,1.389,0,0,1,1.335,1.006l1.6,5.572A1.388,1.388,0,0,1,327.388,232.352Z" transform="translate(-314.975 -223.66)"/><g transform="translate(0 0)"><path class="b" d="M317.843,222.405H307.157a1.058,1.058,0,0,1-1.006-.75,2.45,2.45,0,0,1,.2-1.3q.606-2.105,1.208-4.207a2.039,2.039,0,0,1,.585-1.219,1.983,1.983,0,0,1,1.195-.192h6.3a2.088,2.088,0,0,1,1.184.178c.4.267.479.787.6,1.219.2.7.4,1.4.6,2.095s.407,1.417.609,2.126a2.454,2.454,0,0,1,.2,1.3,1.043,1.043,0,0,1-1,.75.342.342,0,0,0,0,.685,1.752,1.752,0,0,0,1.657-2.232c-.133-.472-.27-.945-.407-1.417q-.575-2.007-1.15-4.012a2.021,2.021,0,0,0-.431-.821,1.757,1.757,0,0,0-1.287-.551c-.4,0-.8,0-1.195,0h-6.178a1.778,1.778,0,0,0-1.766,1.277c-.363,1.243-.715,2.488-1.071,3.731-.161.565-.325,1.13-.486,1.694a2.042,2.042,0,0,0-.082.863,1.742,1.742,0,0,0,1.075,1.349,2.96,2.96,0,0,0,1.136.123H317.84A.344.344,0,0,0,317.843,222.405Z" transform="translate(-305.429 -214.056)"/></g></g><g transform="translate(0 11.364)"><path class="c" d="M86.388,564.352H75.7a1.389,1.389,0,0,1-1.335-1.773l1.6-5.572A1.389,1.389,0,0,1,77.3,556H84.79a1.389,1.389,0,0,1,1.335,1.006l1.6,5.572A1.388,1.388,0,0,1,86.388,564.352Z" transform="translate(-73.975 -555.66)"/><g transform="translate(0 0)"><path class="c" d="M76.843,554.405H66.157a1.058,1.058,0,0,1-1.006-.75,2.45,2.45,0,0,1,.2-1.3q.606-2.1,1.208-4.207a2.039,2.039,0,0,1,.585-1.219,1.983,1.983,0,0,1,1.195-.192h6.3a2.088,2.088,0,0,1,1.184.178c.4.267.479.787.6,1.219.2.7.4,1.4.6,2.095s.407,1.417.609,2.126a2.455,2.455,0,0,1,.2,1.3,1.043,1.043,0,0,1-1,.75.342.342,0,0,0,0,.685,1.751,1.751,0,0,0,1.657-2.232c-.133-.472-.27-.945-.407-1.417q-.575-2.008-1.15-4.012a2.02,2.02,0,0,0-.431-.822,1.757,1.757,0,0,0-1.287-.551c-.4,0-.8,0-1.195,0H67.851a1.778,1.778,0,0,0-1.766,1.277c-.363,1.243-.715,2.488-1.071,3.731-.161.565-.325,1.13-.486,1.694a2.043,2.043,0,0,0-.082.863,1.742,1.742,0,0,0,1.075,1.349,2.958,2.958,0,0,0,1.136.123H76.839A.344.344,0,0,0,76.843,554.405Z" transform="translate(-64.429 -546.056)"/></g></g><g transform="translate(16.498 11.09)"><path class="c" d="M568.388,556.352H557.7a1.389,1.389,0,0,1-1.335-1.773l1.6-5.572A1.389,1.389,0,0,1,559.3,548h7.489a1.39,1.39,0,0,1,1.335,1.006l1.6,5.572A1.388,1.388,0,0,1,568.388,556.352Z" transform="translate(-555.974 -547.66)"/><g transform="translate(0 0)"><path class="c" d="M558.843,546.405H548.157a1.058,1.058,0,0,1-1.006-.75,2.449,2.449,0,0,1,.2-1.3q.606-2.1,1.208-4.207a2.04,2.04,0,0,1,.585-1.219,1.984,1.984,0,0,1,1.195-.192h6.3a2.087,2.087,0,0,1,1.184.178c.4.267.479.787.6,1.219.2.7.4,1.4.6,2.095s.407,1.417.609,2.125a2.455,2.455,0,0,1,.2,1.3,1.043,1.043,0,0,1-1,.75.342.342,0,0,0,0,.685,1.751,1.751,0,0,0,1.657-2.232c-.133-.472-.27-.945-.407-1.417q-.575-2.008-1.15-4.012a2.02,2.02,0,0,0-.431-.822,1.757,1.757,0,0,0-1.287-.551c-.4,0-.8,0-1.194,0h-6.178a1.778,1.778,0,0,0-1.766,1.277c-.363,1.242-.715,2.488-1.071,3.731-.161.565-.325,1.13-.486,1.694a2.042,2.042,0,0,0-.082.863,1.742,1.742,0,0,0,1.075,1.349,2.959,2.959,0,0,0,1.136.123h10.183A.344.344,0,0,0,558.843,546.405Z" transform="translate(-546.429 -538.056)"/></g></g></g></g></svg>