<svg xmlns="http://www.w3.org/2000/svg" width="54" height="53" viewBox="0 0 54 53"><defs><style>.a{fill:#f6f6fe;}.b{fill:#b0aed3;}.b,.c{fill-rule:evenodd;}.c{fill:#635ea8;}</style></defs><g transform="translate(-0.003 0)"><ellipse class="a" cx="27" cy="26.5" rx="27" ry="26.5" transform="translate(0.003 0)"/><g transform="translate(12.723 11.507)"><g transform="translate(0)"><g transform="translate(0)"><path class="b" d="M29.646,42.693l-1.855-.571-.571,1.855,1.855.571Z" transform="translate(-14.008 -21.677)"/><path class="b" d="M33.525,43.887l-.571,1.855,1.856.571.571-1.856Z" transform="translate(-16.959 -22.585)"/><path class="b" d="M22.761,39.036,24.4,37.99,23.35,36.355,21.715,37.4Z" transform="translate(-11.175 -18.709)"/><path class="b" d="M39.259,45.651l-.571,1.855,1.856.571.571-1.856Z" transform="translate(-19.91 -23.493)"/><path class="b" d="M26,52.942h1.942V51H26Z" transform="translate(-13.38 -26.246)"/><path class="b" d="M18.3,39.587,16.66,40.633l1.046,1.636,1.635-1.046Z" transform="translate(-8.574 -20.372)"/><path class="b" d="M20,52.942h1.942V51H20Z" transform="translate(-10.293 -26.246)"/><path class="c" d="M24.2,26.191a.485.485,0,0,1-.464.343.494.494,0,0,1-.143-.021l-5.152-1.585v2.255a.485.485,0,0,1-.485.485H6.31a.485.485,0,0,1-.485-.485V25.165l-1.484.949a.486.486,0,0,1-.671-.148L2.1,23.514a.485.485,0,0,1,.148-.67l7.36-4.708,2.453-1.569a.487.487,0,0,1,.671.148l1.57,2.453a.487.487,0,0,1,.065.366.43.43,0,0,1-.029.067l7.618,2.344,2.784.857a.486.486,0,0,1,.321.607ZM19.915,5.163a6.294,6.294,0,0,1,1.65-3.585.9.9,0,0,0,.212-.995A.924.924,0,0,0,20.917,0H7.235a.923.923,0,0,0-.86.583.9.9,0,0,0,.21.995h0a6.289,6.289,0,0,1,1.65,3.585A14.062,14.062,0,0,0,5.374,29.018a.484.484,0,0,0,.3.1h16.8a.482.482,0,0,0,.3-.1A14.062,14.062,0,0,0,19.915,5.163Z" transform="translate(0)"/><path class="b" d="M14,52.942h1.942V51H14Z" transform="translate(-7.205 -26.246)"/><path class="b" d="M32,52.942h1.942V51H32Z" transform="translate(-16.468 -26.246)"/><path class="b" d="M44.424,49.271l1.855.571.571-1.856-1.856-.571Z" transform="translate(-22.862 -24.401)"/><path class="c" d="M23.2,45.829l-2.268-.7a.486.486,0,0,1-.321-.607l.519-1.686-.96.614-2.452,1.568h0l-1.261.806Z" transform="translate(-8.466 -22.046)"/><path class="b" d="M12.652,45.5l1.635-1.046-1.046-1.636-1.635,1.046Z" transform="translate(-5.973 -22.036)"/><path class="b" d="M8.186,46.054,6.551,47.1,7.6,48.735l1.635-1.046Z" transform="translate(-3.371 -23.7)"/></g></g></g></g></svg>