<svg xmlns="http://www.w3.org/2000/svg" width="54" height="53" viewBox="0 0 54 53"><defs><style>.a{fill:#f6f6fe;}.b{fill:#b0aed3;}.c{fill:#635ea8;}</style></defs><g transform="translate(-0.401 0)"><ellipse class="a" cx="27" cy="26.5" rx="27" ry="26.5" transform="translate(0.401 0)"/><g transform="translate(10.941 10.603)"><g transform="translate(8.061 10.128)"><g transform="translate(0 0)"><path class="b" d="M5.97,69.055a.453.453,0,1,0,0,.907H8.047L4.742,73.267a.453.453,0,0,0,.639.643L8.687,70.6v2.078a.453.453,0,1,0,.906,0V69.51a.453.453,0,0,0-.451-.455ZM4.742,71,1.436,74.306V72.229a.453.453,0,1,0-.907,0V75.4a.453.453,0,0,0,.451.455H4.153a.453.453,0,1,0,0-.906H2.075l3.306-3.306A.453.453,0,0,0,4.742,71Z" transform="translate(-0.53 -69.055)"/></g></g><g transform="translate(0 0)"><path class="c" d="M31.581,26.3l-7.089-7.11a12.835,12.835,0,0,0,1.55-6.2A13.021,13.021,0,1,0,13.021,26.012a12.876,12.876,0,0,0,6.676-1.86L26.7,31.158a2.873,2.873,0,0,0,4.134,0l.827-.827a2.894,2.894,0,0,0-.083-4.03Zm-18.6-4.65a8.579,8.579,0,1,1,.041,0Z" transform="translate(0 0.03)"/></g></g></g></svg>