<svg xmlns="http://www.w3.org/2000/svg" width="54" height="53" viewBox="0 0 54 53"><defs><style>.a{fill:#f6f6fe;}.b{fill:#635ea8;}.c{fill:#b0aed3;}</style></defs><g transform="translate(0.197 0)"><g transform="translate(0 0)"><ellipse class="a" cx="27" cy="26.5" rx="27" ry="26.5" transform="translate(-0.197 0)"/><g transform="translate(17.732 11.489)"><path class="b" d="M52.795,0H39.985A3.379,3.379,0,0,0,36.61,3.375V26.811a3.379,3.379,0,0,0,3.375,3.375h12.81a3.379,3.379,0,0,0,3.375-3.375V3.375A3.378,3.378,0,0,0,52.795,0ZM38.787,6.168H53.993V8.214H38.787Zm1.2-3.991h12.81a1.2,1.2,0,0,1,1.2,1.2v.617H38.787V3.375A1.2,1.2,0,0,1,39.985,2.177Zm12.81,25.832H39.985a1.2,1.2,0,0,1-1.2-1.2V10.391H53.993V26.811A1.2,1.2,0,0,1,52.795,28.008Z" transform="translate(-36.61)"/><rect class="c" width="2.41" height="2.41" transform="translate(12.794 13.322)"/><rect class="c" width="2.41" height="2.41" transform="translate(8.575 13.322)"/><rect class="c" width="2.41" height="2.41" transform="translate(4.357 13.322)"/><rect class="c" width="2.41" height="2.41" transform="translate(12.794 18.111)"/><rect class="c" width="2.41" height="2.41" transform="translate(8.575 18.111)"/><rect class="c" width="2.41" height="2.41" transform="translate(4.357 18.111)"/><rect class="c" width="2.41" height="2.41" transform="translate(12.794 22.9)"/><rect class="c" width="2.41" height="2.41" transform="translate(8.575 22.9)"/><rect class="c" width="2.41" height="2.41" transform="translate(4.357 22.9)"/></g></g></g></svg>