<svg xmlns="http://www.w3.org/2000/svg" width="54" height="53" viewBox="0 0 54 53"><defs><style>.a{fill:#f6f6fe;}.b{fill:#b0aed3;}.c{fill:#635ea8;}</style></defs><g transform="translate(0.2 0)"><ellipse class="a" cx="27" cy="26.5" rx="27" ry="26.5" transform="translate(-0.2 0)"/><g transform="translate(11.865 11.489)"><path class="b" d="M7.517,13.9H35.484a.287.287,0,0,0,.148-.533L22,5.139a.968.968,0,0,0-1,0L7.369,13.362a.287.287,0,0,0,.148.533Z" transform="translate(-6.486 -5)"/><path class="b" d="M5.356,88.967H34.674a.355.355,0,0,1,.355.355v1.3a.355.355,0,0,1-.355.355H5.356A.355.355,0,0,1,5,90.625v-1.3a.355.355,0,0,1,.355-.355Z" transform="translate(-5 -60.951)"/><path class="c" d="M36,37.191a.355.355,0,0,0,.355-.355v-1.3A.355.355,0,0,0,36,35.178H9.356A.355.355,0,0,0,9,35.533v1.3a.355.355,0,0,0,.355.355h2V47.636h-.3a.6.6,0,0,0-.6.6v1.532h-1.1A.355.355,0,0,0,9,50.126v1.3a.355.355,0,0,0,.355.355H36a.355.355,0,0,0,.355-.355v-1.3A.355.355,0,0,0,36,49.771h-1.1V48.239a.6.6,0,0,0-.6-.6H34V37.191ZM20.72,47.636h-.3a.6.6,0,0,0-.6.6v1.532H16.181V48.239a.6.6,0,0,0-.6-.6h-.3V37.191H20.72Zm9.363,0h-.3a.6.6,0,0,0-.6.6v1.532H25.544V48.239a.6.6,0,0,0-.6-.6h-.3V37.191h5.443Z" transform="translate(-7.665 -25.109)"/></g></g></svg>