<svg xmlns="http://www.w3.org/2000/svg" width="54" height="53" viewBox="0 0 54 53"><defs><style>.a{fill:#f6f6fe;}.b{fill:#635ea8;}.c{fill:#b0aed3;}</style></defs><g transform="translate(-0.401 -0.199)"><ellipse class="a" cx="27" cy="26.5" rx="27" ry="26.5" transform="translate(0.401 0.199)"/><g transform="translate(9.6 9.6)"><path class="b" d="M17,34A16.931,16.931,0,0,1,5.915,29.889l3.448-3.448A12.171,12.171,0,0,0,17,29.143a12.024,12.024,0,0,0,7.445-2.55L27.9,30.047A16.928,16.928,0,0,1,17,34Zm13.047-6.1h0l-3.453-3.453A12.024,12.024,0,0,0,29.143,17a12.171,12.171,0,0,0-2.7-7.637l3.448-3.448A16.982,16.982,0,0,1,30.047,27.9ZM3.8,27.712h0A16.981,16.981,0,0,1,3.953,6.1L7.407,9.554a12.145,12.145,0,0,0-.147,14.7L3.8,27.712Zm5.754-20.3h0L6.1,3.954A16.983,16.983,0,0,1,27.712,3.8l-3.46,3.46a12.146,12.146,0,0,0-14.7.148Z" transform="translate(-0.199 -0.4)"/><g transform="translate(11.999 10.8)"><rect class="c" width="3" height="5" transform="translate(-0.198 5.799)"/><rect class="c" width="1" height="7" transform="translate(4.802 4.799)"/><rect class="c" width="1" height="11" transform="translate(9.802 -0.201)"/></g></g></g></svg>