<svg xmlns="http://www.w3.org/2000/svg" xmlns:xlink="http://www.w3.org/1999/xlink" width="615" height="363" viewBox="0 0 615 363"><defs><style>.a,.e{fill:#fff;}.a{stroke:#707070;}.b{clip-path:url(#a);}.c{opacity:0.9;}.d{fill:#b0aed3;}.f,.g{fill:none;stroke:#f6f6fe;}.f{stroke-width:3px;}.g{stroke-width:2px;}</style><clipPath id="a"><rect class="a" width="615" height="363" transform="translate(351 647.951)"/></clipPath></defs><g class="b" transform="translate(-351 -647.951)"><g class="c" transform="translate(633.853 687.934)"><g transform="translate(0 0)"><path class="d" d="M21.169,151.815v0h0l8.778-40.641c-7.762-4.6-13.838-8.384-18.574-11.578C5.7,95.764,1.977,92.816,0,90.58c3.929-2.873,10.942-9.872,20.842-20.8,8.007-8.837,16.087-18.266,20.19-23.1L25.715,17.471l.137-.035.363-.082C43.87,13.334,56.87,10.446,64.667,8.731c11.52-2.531,20.975-4.55,28.1-6C101.645.919,106.874,0,108.307,0a2.163,2.163,0,0,1,.235.011c-.148.776-.35,1.706-.565,2.69l-.1.459-.007.03V3.2l0,.007c-.7,3.233-1.769,8.116-3.187,16.44-.551,3.237-1.16,11.878-.928,34.657.133,13.136.484,24.828.524,26.118v.016l1.728,2.951,4.97,2.776c0,.007-.023.038-.051.089l-.07.121c-3.169,5.541-10.632,18.668-11.462,20.881a2.608,2.608,0,0,1-.182.373c-.661,3.809-1.706,9.552-2.927,15.291L106.4,127.55l-12.273,4.624c-2.309,8.973-4.328,13.523-6,13.523a1.283,1.283,0,0,1-.958-.548c-1.651-1.971-9.746-6.8-21.393-13.449l-44.6,20.113ZM40.538,102.53a2.34,2.34,0,1,0,2.339,2.34A2.342,2.342,0,0,0,40.538,102.53ZM18.15,86.494A4.01,4.01,0,1,0,22.16,90.5,4.013,4.013,0,0,0,18.15,86.494ZM49.558,23.682a4.676,4.676,0,1,0,4.675,4.678A4.683,4.683,0,0,0,49.558,23.682Z"/><path class="d" d="M36.639,160.819h0v0L25,113.182c-6.809-2.734-11.745-4.647-15.533-6.023-4.434-1.607-7.118-2.407-8.205-2.444a1.189,1.189,0,0,1-1.137-.606c-.71-1.514,1.67-5.846,7.072-12.876L3.283,78.724l9.88,5.115c3.023-3.6,6.472-7.545,10.25-11.716a3.416,3.416,0,0,1,.182-.377c1.409-2.3,8.622-19.993,9.439-22,.027-.062.04-.1.044-.111l5.249,2.215,3.393-.46.027-.017h0c.355-.227,8.812-5.614,18.315-12.519C65.917,34.6,71.2,30.5,75.762,26.667A122.713,122.713,0,0,0,89.375,13.646c6.5-7.524,10.17-11.841,11.211-13.2L139.7,74.526l-32.713,5.961c-1.782,6.788-5.123,20.018-7.486,32.345a160.147,160.147,0,0,0-2.492,16.935c-.4,5.2-.093,8.58.912,10.041.2.281.256.5.175.659s-.354.256-.793.256c-1.623,0-5.6-1.145-12.147-3.5-5.352-1.929-12.282-4.612-21.811-8.443L36.64,160.818Zm3.981-23.274a2,2,0,1,0,2,2A2.006,2.006,0,0,0,40.621,137.546Zm43.434-18.708a4.678,4.678,0,1,0,4.678,4.678A4.683,4.683,0,0,0,84.055,118.838ZM98.421,24.616a6.349,6.349,0,1,0,4.489,1.859A6.355,6.355,0,0,0,98.421,24.616ZM100.586.437v0L100.52.309s0,0,.007-.007l.014-.011A1.886,1.886,0,0,1,100.876,0h0c.014.024-.076.158-.292.436Z" transform="translate(192.026 51.186)"/><path class="d" d="M9.979,4.238a15.222,15.222,0,0,1-5.72-1.105A9.839,9.839,0,0,1,0,0,42.659,42.659,0,0,0,14.117,2.821h.017l.092.007.11,0c.625.024,1.057.044,1.417.089A12.274,12.274,0,0,1,9.979,4.238Z" transform="translate(175.117 125.782)"/><path class="d" d="M681.127-683.2c-3.033.044-9.261-2.043-12.4-5.674,1.639,3.4,5.161,6.171,8.5,7.9a7.3,7.3,0,0,1-3.419.008A8.275,8.275,0,0,1,666.349-688c-.829-5.034,13.165-38.428,14.766-40.954a15.9,15.9,0,0,1,13.4,2.112c-1.84-3.62-7.292-6.228-11.309-6.375,5.556-5.9,16.566.416,16.64,8.558.041,5-8.958,33.2-18.719,41.461Zm-24.239-.527-.285.172-.129.056c-7.235,2.67-16.731-1.065-19.359-5.7,1.6-7.53,2.78-18.646,4.234-30.588.9-7.445,1.777-20.741,9.679-25.167,5.239-2.933,13.7-1.846,20.443.82-4.047-3.76-10.619-6.824-21.434-6.775a19.6,19.6,0,0,1,16.472-4.149c4.1.754,8.108,2.085,8.243,5.469C675.164-739.277,665.834-690.472,656.887-683.727ZM599.57-706.9l.006-.005-.016-.151c.015-2.29,2.784-5.807,10-7.219,9.119,4.773,16.457,9.42,19.49,12.009a1.669,1.669,0,0,1,.677,1.114,2.167,2.167,0,0,1-1,1.9C618.623-692.191,600.738-702.089,599.57-706.9Zm-5.447-21.515c-9.826-5.4-17.589-9.866-23.439-11.053-3.978-.805-11.521,1.3-17.2,3.28-.846-8.465,1.77-13.75,9.183-17.336,9.174-4.429,20.556-5.283,20.556-5.283-6.019-1.793-16.21-.993-22.72,1.2,7.181-6.516,24.749-8.124,26.352-3.947A112.83,112.83,0,0,1,594.123-728.412Zm9.04-21.544c3.637-4.69,16.771-6.3,23.818-5.463-5.98-2.712-11.49-2.783-21.755-1.537,0,0,12.494-5.505,26.65-4.13-6.384-3.331-20.991-3.832-29.227-2.38,8.436-3.919,32.215-7.816,33.247,1.8,1.251,11.719,2.038,48.089-1.984,65.016.155-3.3-.1-6.19-2.766-8.248-.927-.921-20.523-14.149-31.051-20.167-.265-12.553-.5-20.274,3.069-24.891Zm76.169,128.193c10.917-11.826,17.054-28.047,17.725-46.2,5.781-12.653,9.134-30.314,9.315-51.766,4.568-18.824-17.918-26.507-25.627-24.245,1.761-7.471,1.4-11.734-7.685-15.82-7.9-3.238-24.847-5.036-30.817.852-.247-4.432-.715-7.441-1.42-8.243-6-8.183-34.911-7.26-43.047-2.251-1.449.908-2.365,3.684-2.9,7.477a7.93,7.93,0,0,0-4.461-5.028c-15.276-5.983-37.5,3.374-39.667,7.035-4.466,7.55-3.025,17.087-1.933,25.606-5.723,2.522-10.783,5.784-13,8.713-4.8,6.35-16.295,56.547-7.626,71.863,3.686,6.532,5.659,12.7,23.967,27.272l6.116,4.543c11.471,17.893,15.25,151.367,13.82,232.156q4.281,1.248,8.615,2.271c-2.463-47-5.847-215.546-9.227-226,19.773,12.071,41.914,8.8,48.417,6.516-30.559,1.889-62.787-22.763-73.928-42.878a37.436,37.436,0,0,0,4.618,12.746c-7.116-5.868-19.368-16.846-17.434-34.675,1.883-17.354,4.17-34.628,11.32-44.987,7.159-10.4,26.835-14.748,27.475-14.888-13.6.456-27.469,9.141-27.834,9.407,4.5-7.594,20.391-13.969,27.171-12.6,7.766,1.589,22.119,11.067,35.419,18.932-5.843,1.345-11.556,5.018-11.541,9.127,1.067,7.4,21.138,15.389,32.307,10.288-9.494,11.21-37.177,14.464-62.379-10.51,7.649,10.224,10.494,15.975,10.307,21.569-.2,5.944-8.853,8.869-9.75,9.158,23.071,2.308,45.965,8.572,60.982,41.172,4.131-17.846,16.276-25.722,30.992-24.355-2.907-1.679-8.8-3.4-16.4-1.734,12.482-15.135,28.625-13.557,33.595-14.334a19.328,19.328,0,0,0,6.8-2.541,3.486,3.486,0,0,1,4.459,5.251c-.409.475-.812.9-1.2,1.287,1.42,1.808.656,17.08-10.263,15.6,5.177,6.515,2.08,12.555-2.174,16.421-1.91,1.734-7.356,3.453-9.8,2.551,3.875,17.794-15.832,29.309-33.555,29.576,4.5,2.469,8.436,3.52,14.966,2.787,7.005-.777,7.553,1.792,6.616,10.045-2.26,19.781-4.784,79.022-5.653,98.124-1.576-21.26-3-80.464-3.462-93.744-1.888,13.086-2.325,180.09-1.984,206.076,12.887-1.5,32.916-5.121,45.31-9.62-9.634-36.25-8.954-207.551-5.533-228.013" transform="translate(-466.1 815.258)"/><path class="d" d="M6.41,72.331c-1.76,0-3.518-.029-5.224-.082C.6,56.328.217,41.705.071,29.96-.107,15.847.051,5.767.54,0,1.8,5.614,3.2,15.678,4.689,29.911,5.85,41,7.1,54.869,8.512,72.321,7.84,72.327,7.192,72.331,6.41,72.331Z" transform="translate(147.435 220.293)"/></g><path class="e" d="M106.515,401.316h0l-59.8-8.5c-.685-21.3-1.417-49.71-2.192-79.79v0c-1.841-71.473-3.928-152.483-6-158.875a62.279,62.279,0,0,0,32.322,8.713,64.1,64.1,0,0,0,9.739-.721,37.739,37.739,0,0,0,6.357-1.474c-1.111.068-2.233.1-3.334.1a66.48,66.48,0,0,1-21.982-3.992,93.136,93.136,0,0,1-20.365-10.23,104.628,104.628,0,0,1-8.98-6.642,99.439,99.439,0,0,1-7.86-7.225,72.152,72.152,0,0,1-11.406-14.893,27.918,27.918,0,0,0,1.562,6.119,45.831,45.831,0,0,0,3.055,6.628A57.73,57.73,0,0,1,5.526,117.68a34.493,34.493,0,0,1-4.416-9.709A32.554,32.554,0,0,1,.2,95.857,246.654,246.654,0,0,1,3.888,70.741c1.9-8.673,4.393-15.173,7.634-19.869a25.711,25.711,0,0,1,7.223-6.693,53.038,53.038,0,0,1,8.959-4.6A75.652,75.652,0,0,1,39,35.983a43.8,43.8,0,0,0-10.036,1.625,66.782,66.782,0,0,0-8.843,3.15,66.316,66.316,0,0,0-8.951,4.634,18.279,18.279,0,0,1,4.584-4.906,37.8,37.8,0,0,1,6.667-4.072,43.956,43.956,0,0,1,7.312-2.78A25.35,25.35,0,0,1,36.244,32.6a10.48,10.48,0,0,1,2.09.19c2.827.577,6.636,2.192,11.986,5.082,4.723,2.55,9.9,5.685,15.372,9,2.654,1.608,5.4,3.27,8.063,4.846a22.188,22.188,0,0,0-7.968,3.524,10.8,10.8,0,0,0-2.6,2.63,5.331,5.331,0,0,0-.976,2.971A7.748,7.748,0,0,0,64.8,65.144a23.281,23.281,0,0,0,5.678,3.821,37.462,37.462,0,0,0,7.53,2.737,33.923,33.923,0,0,0,8.142,1.048,20.105,20.105,0,0,0,8.373-1.611,22.519,22.519,0,0,1-8.895,6.111,32.139,32.139,0,0,1-6.068,1.728,38.322,38.322,0,0,1-6.915.615,45.082,45.082,0,0,1-9.412-1.026,53.031,53.031,0,0,1-10.1-3.29A69.875,69.875,0,0,1,32.14,60.63a79.226,79.226,0,0,1,8.093,12.52A19.064,19.064,0,0,1,42.45,82.2a6.729,6.729,0,0,1-1.473,3.881,12.616,12.616,0,0,1-3.114,2.8A23.031,23.031,0,0,1,32.7,91.356,116.72,116.72,0,0,1,49.848,94.18a65.235,65.235,0,0,1,16.362,6.4C77.817,107.149,86.8,117.6,93.681,132.53a40.156,40.156,0,0,1,4.092-10.8,28.2,28.2,0,0,1,6.264-7.649,25,25,0,0,1,8.031-4.551,28.809,28.809,0,0,1,9.393-1.506c1.051,0,2.133.052,3.214.151a20.852,20.852,0,0,0-10.3-2.411,28.616,28.616,0,0,0-6.1.676,38.339,38.339,0,0,1,8.283-7.548,36.154,36.154,0,0,1,8.422-4.137,51.586,51.586,0,0,1,13.879-2.39c1.153-.071,2.239-.138,3.01-.259a19.314,19.314,0,0,0,6.8-2.539,3.6,3.6,0,0,1,1.836-.523,3.421,3.421,0,0,1,1.934.611,3.678,3.678,0,0,1,1.283,1.525,3.3,3.3,0,0,1,.275,1.8,3.44,3.44,0,0,1-.869,1.839c-.363.424-.755.846-1.2,1.29.421.536.623,2.172.5,4.069A17.854,17.854,0,0,1,150.8,106.6a9.864,9.864,0,0,1-2.915,3.679,7.832,7.832,0,0,1-4.788,1.525,10.84,10.84,0,0,1-1.441-.1c2.361,2.972,3.185,6.068,2.45,9.2a14.806,14.806,0,0,1-4.625,7.217,11.234,11.234,0,0,1-3.626,1.925,14.446,14.446,0,0,1-4.5.875,4.888,4.888,0,0,1-1.672-.248,19.675,19.675,0,0,1-.084,9.1,20.335,20.335,0,0,1-3.874,7.657,32.454,32.454,0,0,1-12.95,9.33,45.4,45.4,0,0,1-16.648,3.49,25.087,25.087,0,0,0,5.265,2.238,21.283,21.283,0,0,0,5.9.778,33.715,33.715,0,0,0,3.8-.229,19.19,19.19,0,0,1,2.118-.131c1.835,0,3.037.387,3.781,1.222,1.293,1.448,1.25,4.263.718,8.953-2.067,18.087-4.313,68.242-5.393,92.346l-.025.548c-.088,1.967-.167,3.723-.235,5.23-1.22-16.47-2.341-55.448-3.011-78.737v-.027c-.184-6.405-.343-11.938-.449-14.976-1.645,11.387-2.164,166.727-2.083,223.848ZM81.134,172.706c-.488,5.733-.647,15.812-.47,29.959.147,11.778.533,26.4,1.115,42.29,1.723.053,3.481.08,5.224.08.828,0,1.477,0,2.1-.011-1.406-17.394-2.657-31.266-3.825-42.409-1.493-14.244-2.888-24.307-4.147-29.91Zm61.69-85.82a12.592,12.592,0,0,1-1.96-.186,8.927,8.927,0,0,1-5.105-2.375,8.355,8.355,0,0,1-2.351-4.654c-.471-2.86,3.852-14.647,6.471-21.419,3.714-9.6,7.533-18.336,8.3-19.539l.005,0a13.765,13.765,0,0,1,4.289-.631,16.232,16.232,0,0,1,4.2.552,17.422,17.422,0,0,1,4.908,2.194,11.325,11.325,0,0,0-4.838-4.488,15.514,15.514,0,0,0-6.471-1.885A7.29,7.29,0,0,1,155.7,32.14a10.223,10.223,0,0,1,3.985.866,12.7,12.7,0,0,1,3.588,2.351,11.856,11.856,0,0,1,2.6,3.458,9.655,9.655,0,0,1,1.026,4.2,34.387,34.387,0,0,1-1.536,7.427c-1.072,3.763-2.546,8.053-4.149,12.081-2.447,6.149-7.394,17.181-13.035,21.953h-.091a17.6,17.6,0,0,1-6.138-1.49A16.929,16.929,0,0,1,135.78,78.8c2.036,4.216,6.624,6.926,8.5,7.9A5.278,5.278,0,0,1,142.823,86.886Zm-24.569-1.821a20.194,20.194,0,0,1-8.529-1.962,12.443,12.443,0,0,1-5.553-4.631c1.323-6.241,2.383-15.132,3.507-24.546l0-.017c.241-2.021.478-4,.723-6.021.073-.6.145-1.229.222-1.9.872-7.647,2.19-19.2,9.458-23.27a16.082,16.082,0,0,1,7.893-1.75,35.247,35.247,0,0,1,12.55,2.57c-4.84-4.5-11.968-6.775-21.189-6.775-.082,0-.162,0-.245,0l0-.007a16.125,16.125,0,0,1,3.336-2.251,19.91,19.91,0,0,1,9.23-2.26,21.355,21.355,0,0,1,3.9.367,18.538,18.538,0,0,1,5.61,1.748,5.822,5.822,0,0,1,1.865,1.545,3.824,3.824,0,0,1,.767,2.178,85.329,85.329,0,0,1-1.357,13.691c-1.012,6.488-2.454,13.8-4.063,20.575a172.967,172.967,0,0,1-5.818,19.907c-2.313,6.183-4.542,10.116-6.625,11.685l-.285.172-.127.055A15.2,15.2,0,0,1,118.254,85.065Zm-9.978-6.871a9.827,9.827,0,0,0,4.256,3.133,15.223,15.223,0,0,0,5.721,1.105,12.281,12.281,0,0,0,5.776-1.318c-.364-.044-.8-.064-1.418-.09l-.108,0-.093,0h-.017A42.641,42.641,0,0,1,108.276,78.194Zm-7.305-7.178h0a15.151,15.151,0,0,0-.327-4.582,6.671,6.671,0,0,0-2.442-3.66c-.442-.441-5.338-3.83-11.924-8.174-4.521-2.981-13.018-8.5-19.124-11.994l-.015-.711v-.007a142.6,142.6,0,0,1,.13-14.937c.393-4.257,1.3-7.106,2.955-9.239l0,0c1.383-1.781,4.272-3.268,8.352-4.3a48.964,48.964,0,0,1,11.48-1.373,34.108,34.108,0,0,1,3.986.213,26.216,26.216,0,0,0-11.5-2.317,85.986,85.986,0,0,0-10.249.778l0,0a51.865,51.865,0,0,1,6.45-2.171,63.685,63.685,0,0,1,7-1.5,56.312,56.312,0,0,1,8.558-.679c1.574,0,3.136.075,4.64.221a27.934,27.934,0,0,0-8.4-2.391,71.05,71.05,0,0,0-10.616-.757A61.221,61.221,0,0,0,69.7,4.209a46.6,46.6,0,0,1,9.385-2.9A58.417,58.417,0,0,1,90.687,0a21.7,21.7,0,0,1,8.369,1.335c2.361,1.014,3.672,2.585,3.9,4.669a304.037,304.037,0,0,1,.986,30.557c-.082,6.909-.346,13.238-.786,18.81A107.065,107.065,0,0,1,100.971,71.015ZM87.2,70.88a25.527,25.527,0,0,1-7.042-1.073,33.281,33.281,0,0,1-6.426-2.626c-3.874-2.079-6.661-4.6-7.1-6.407l.007-.007-.017-.151a5.6,5.6,0,0,1,2.3-3.937,17.16,17.16,0,0,1,7.7-3.283c4.31,2.255,8.469,4.615,12.028,6.826a67.5,67.5,0,0,1,7.462,5.186,1.678,1.678,0,0,1,.679,1.11,2.184,2.184,0,0,1-1,1.9A14.692,14.692,0,0,1,87.2,70.88ZM61.181,39.259v0c-.992-.544-1.744-.959-2.441-1.344l-.006,0C50,33.1,43.1,29.293,37.741,28.208a10.272,10.272,0,0,0-2.01-.176c-4.34,0-10.657,1.878-15.192,3.453a24.3,24.3,0,0,1,.037-5.775,14.285,14.285,0,0,1,1.459-4.722c1.465-2.808,3.981-5.046,7.69-6.838a47.726,47.726,0,0,1,7.081-2.692,68.171,68.171,0,0,1,6.635-1.611c3.734-.716,6.523-.955,6.828-.98h.008a29.773,29.773,0,0,0-8.213-.985,48.1,48.1,0,0,0-14.5,2.187C32.084,5.963,40.7,3.814,46.868,3.814c3.914,0,6.483.841,7.046,2.306l.019.051A104.137,104.137,0,0,1,57.618,17.55a117.755,117.755,0,0,1,3.564,21.707Z" transform="translate(66.843 47.586)"/><path class="f" d="M-4595.038-19304.3s43.121-34.84,51.137-41.531a69.746,69.746,0,0,0,12.054-12.609l30.717,60.613-22.759,5.375" transform="translate(4824.319 19419.918)"/><path class="f" d="M-4615.639-19248.529c11.7,7.922,22.967,19.666,38.313,28.977s25.478,12.211,31.02,13.559c-1.9-5.871,9.151-66.184,9.151-66.184s-62.026-4.322-69.46-7.328" transform="translate(4831.154 19393.729)"/><path class="f" d="M-4615.639-19218.277l14.979,49.082,23.609-30.031" transform="translate(4831.154 19373.412)"/><path class="g" d="M-4847.187-19338.613s-22.53-48.576-30.61-65.1-10.585-22.375-10.585-22.375l69.042-16.547a119.414,119.414,0,0,0-3.062,21.234c-.766,12.586,0,29.115,0,29.115" transform="translate(4921.647 19447.854)"/><path class="g" d="M-4893.625-19374.979a167.868,167.868,0,0,1-14.257,19.385c-8.868,10.465-22.493,21.045-22.493,21.045l23.431,16.043" transform="translate(4935.58 19425.404)"/><path class="g" d="M-4852.977-19279.127l-44.378,19.746,8.93-43.645,35.448,4.387" transform="translate(4924.624 19401.531)"/></g><g class="c" transform="translate(438.239 848.319)"><g transform="translate(0 0)"><path class="d" d="M13.587,0h0l5.634,26.084C14.24,29.036,10.341,31.467,7.3,33.516A41.363,41.363,0,0,0,0,39.3c2.522,1.844,7.023,6.336,13.377,13.35C18.516,58.324,23.7,64.375,26.335,67.478L16.5,86.223l.088.023.233.053C28.156,88.879,36.5,90.732,41.5,91.833c7.394,1.624,13.462,2.92,18.036,3.852a93.273,93.273,0,0,0,9.973,1.751,1.324,1.324,0,0,0,.151-.007c-.1-.5-.225-1.095-.363-1.726l-.064-.295,0-.02v-.008c-.452-2.074-1.135-5.209-2.046-10.552-.354-2.077-.744-7.623-.6-22.243.085-8.43.311-15.935.336-16.763v-.01l1.109-1.894,3.19-1.781s-.015-.024-.033-.057L71.148,42c-2.034-3.557-6.824-11.982-7.357-13.4a1.714,1.714,0,0,0-.116-.239c-.424-2.444-1.095-6.131-1.879-9.814l6.494-2.974-7.877-2.968c-1.482-5.759-2.778-8.68-3.852-8.68a.822.822,0,0,0-.615.352c-1.06,1.265-6.255,4.365-13.731,8.632L13.588,0ZM26.018,31.632a1.5,1.5,0,1,1,1.5-1.5A1.5,1.5,0,0,1,26.018,31.632ZM11.649,41.924a2.574,2.574,0,1,1,2.573-2.574A2.576,2.576,0,0,1,11.649,41.924ZM31.807,82.237a3,3,0,1,1,3-3A3.006,3.006,0,0,1,31.807,82.237Z" transform="translate(212.91 97.437) rotate(180)"/><path class="d" d="M23.516,0h0L16.044,30.575c-4.37,1.755-7.538,2.983-9.969,3.866A25.663,25.663,0,0,1,.808,36.01a.762.762,0,0,0-.73.388c-.456.972,1.071,3.752,4.539,8.265l-2.51,8.028,6.341-3.282c1.941,2.313,4.154,4.843,6.579,7.519a2.157,2.157,0,0,0,.117.242c.9,1.473,5.533,12.832,6.058,14.122.017.039.025.063.028.071L24.6,69.94l2.178.3.017.011h0c.228.146,5.655,3.6,11.755,8.035,3.756,2.728,7.146,5.359,10.075,7.819a78.8,78.8,0,0,1,8.737,8.357c4.174,4.829,6.527,7.6,7.2,8.473L89.664,55.385l-21-3.826c-1.143-4.356-3.288-12.847-4.8-20.76a102.76,102.76,0,0,1-1.6-10.87c-.257-3.338-.06-5.507.585-6.445.127-.18.164-.322.112-.424s-.228-.164-.509-.164c-1.042,0-3.592.735-7.8,2.249-3.435,1.239-7.883,2.961-14,5.42L23.517,0Zm2.555,14.938a1.286,1.286,0,1,1,1.286-1.287A1.288,1.288,0,0,1,26.071,14.938ZM53.948,26.944a3,3,0,1,1,3-3A3.005,3.005,0,0,1,53.948,26.944Zm9.221,60.474a4.075,4.075,0,1,1,2.881-1.194A4.079,4.079,0,0,1,63.168,87.419Zm1.39,15.518h0l-.043.081s0,0,0,0l.008.007a1.222,1.222,0,0,0,.216.187h0c.009-.015-.049-.1-.187-.279Z" transform="translate(89.664 136.069) rotate(180)"/><path class="d" d="M6.4,0A9.77,9.77,0,0,0,2.733.709,6.314,6.314,0,0,0,0,2.72,27.36,27.36,0,0,1,9.06.91h.011l.059,0L9.2.9c.4-.015.678-.028.909-.057A7.88,7.88,0,0,0,6.4,0Z" transform="translate(100.516 83.449) rotate(180)"/><path class="d" d="M541.63-715.461a12.378,12.378,0,0,0,7.96-3.642,12.376,12.376,0,0,1-5.456,5.068,4.685,4.685,0,0,0,2.194.005,5.311,5.311,0,0,0,4.786-4.513c.532-3.231-8.45-24.664-9.477-26.285a10.207,10.207,0,0,0-8.6,1.355c1.181-2.323,4.68-4,7.258-4.091-3.566-3.787-10.633.267-10.68,5.493C529.589-738.86,535.365-720.762,541.63-715.461Zm15.557-.338.183.11.083.036c4.643,1.714,10.738-.683,12.425-3.657-1.024-4.833-1.784-11.968-2.717-19.632-.58-4.778-1.14-13.312-6.212-16.152-3.362-1.882-8.792-1.185-13.121.526,2.6-2.413,6.816-4.38,13.757-4.348a12.58,12.58,0,0,0-10.572-2.663c-2.632.484-5.2,1.338-5.291,3.51C545.456-751.452,551.445-720.128,557.187-715.8Zm36.787-14.871,0,0,.01-.1c-.01-1.47-1.787-3.727-6.419-4.634a80.687,80.687,0,0,0-12.509,7.708,1.071,1.071,0,0,0-.435.715,1.391,1.391,0,0,0,.641,1.217C581.746-721.232,593.224-727.585,593.974-730.671Zm3.5-13.808c6.307-3.465,11.289-6.332,15.044-7.094,2.553-.517,7.394.837,11.04,2.105.543-5.433-1.136-8.825-5.894-11.127a42.371,42.371,0,0,0-13.193-3.391c3.863-1.151,10.4-.637,14.582.771-4.609-4.182-15.884-5.214-16.913-2.533A72.416,72.416,0,0,0,597.47-744.479Zm-5.8-13.827c-2.334-3.01-10.764-4.045-15.287-3.506,3.838-1.741,7.374-1.786,13.963-.986a38.205,38.205,0,0,0-17.1-2.651c4.1-2.138,13.472-2.459,18.759-1.527-5.415-2.516-20.676-5.017-21.338,1.156-.8,7.521-1.308,30.864,1.273,41.728-.1-2.118.065-3.973,1.775-5.294.595-.591,13.172-9.081,19.929-12.944.17-8.057.322-13.012-1.97-15.976ZM542.781-676.03c-7.007-7.59-10.945-18-11.376-29.651-3.711-8.121-5.862-19.456-5.978-33.224-2.932-12.081,11.5-17.013,16.448-15.561-1.13-4.795-.9-7.531,4.932-10.153,5.07-2.078,15.947-3.232,19.779.547.158-2.845.459-4.776.911-5.291,3.853-5.252,22.406-4.66,27.628-1.445.93.583,1.518,2.365,1.864,4.8a5.09,5.09,0,0,1,2.863-3.227c9.8-3.84,24.066,2.166,25.459,4.515,2.867,4.846,1.941,10.967,1.241,16.434,3.673,1.619,6.921,3.712,8.346,5.592,3.079,4.075,10.458,36.293,4.894,46.123-2.366,4.192-3.632,8.15-15.383,17.5l-3.925,2.916c-7.362,11.484-9.787,97.15-8.87,149q-2.747.8-5.529,1.458c1.581-30.164,3.753-138.341,5.922-145.048-12.691,7.748-26.9,5.649-31.075,4.182,19.614,1.212,40.3-14.609,47.448-27.52a24.024,24.024,0,0,1-2.964,8.181c4.567-3.766,12.431-10.812,11.19-22.255-1.209-11.138-2.676-22.224-7.265-28.874-4.595-6.673-17.223-9.465-17.634-9.555,8.731.293,17.63,5.867,17.865,6.037-2.887-4.874-13.087-8.966-17.439-8.085-4.985,1.02-14.2,7.1-22.733,12.151,3.75.863,7.417,3.22,7.407,5.858-.685,4.749-13.567,9.877-20.735,6.6,6.093,7.195,23.861,9.283,40.036-6.745-4.909,6.562-6.736,10.253-6.615,13.843.131,3.815,5.682,5.693,6.258,5.878-14.807,1.482-29.5,5.5-39.14,26.425-2.652-11.454-10.446-16.509-19.891-15.631a15.149,15.149,0,0,1,10.527-1.113c-8.011-9.714-18.372-8.7-21.562-9.2a12.4,12.4,0,0,1-4.363-1.631,2.238,2.238,0,0,0-2.862,3.37c.262.3.521.575.771.826-.911,1.16-.421,10.962,6.587,10.014-3.323,4.181-1.335,8.058,1.4,10.539,1.226,1.113,4.721,2.216,6.291,1.637-2.487,11.421,10.161,18.811,21.536,18.982a14.448,14.448,0,0,1-9.606,1.789c-4.5-.5-4.848,1.15-4.246,6.447,1.451,12.7,3.071,50.718,3.628,62.978,1.012-13.645,1.924-51.643,2.222-60.166,1.212,8.4,1.492,115.585,1.273,132.263-8.271-.964-21.126-3.287-29.081-6.174,6.183-23.266,5.747-133.21,3.551-146.343" transform="translate(-466.728 800.218)"/><path class="d" d="M4.114,0C2.984,0,1.856.018.762.053.387,10.271.14,19.656.045,27.194c-.114,9.057-.013,15.527.3,19.229.81-3.6,1.706-10.063,2.663-19.2C3.754,20.111,4.557,11.208,5.463.007,5.032,0,4.616,0,4.114,0Z" transform="translate(118.283 187.811) rotate(180)"/></g><path class="e" d="M68.363,0h0L29.984,5.455c-.44,13.67-.909,31.9-1.407,51.211v0c-1.182,45.874-2.521,97.867-3.848,101.969a39.972,39.972,0,0,1,20.745-5.592,41.168,41.168,0,0,1,6.25.463,24.231,24.231,0,0,1,4.08.946c-.713-.043-1.433-.066-2.14-.066a42.684,42.684,0,0,0-14.108,2.561,59.8,59.8,0,0,0-13.071,6.567,67.139,67.139,0,0,0-5.764,4.262,63.943,63.943,0,0,0-5.045,4.637,46.329,46.329,0,0,0-7.321,9.559,17.922,17.922,0,0,1,1-3.928,29.428,29.428,0,0,1,1.96-4.253,37.051,37.051,0,0,0-7.774,8.25,22.134,22.134,0,0,0-2.834,6.232A20.894,20.894,0,0,0,.13,196.05,158.294,158.294,0,0,0,2.5,212.169c1.217,5.567,2.82,9.738,4.9,12.752a16.5,16.5,0,0,0,4.636,4.3,34.018,34.018,0,0,0,5.75,2.951,48.478,48.478,0,0,0,7.247,2.31,28.076,28.076,0,0,1-6.441-1.043,42.9,42.9,0,0,1-5.676-2.022,42.511,42.511,0,0,1-5.745-2.974,11.726,11.726,0,0,0,2.942,3.149,24.206,24.206,0,0,0,4.279,2.613,28.287,28.287,0,0,0,4.693,1.785,16.265,16.265,0,0,0,4.183.66,6.751,6.751,0,0,0,1.341-.121,30.75,30.75,0,0,0,7.693-3.262c3.031-1.637,6.351-3.648,9.866-5.778,1.7-1.032,3.464-2.1,5.175-3.11a14.244,14.244,0,0,1-5.114-2.262,6.927,6.927,0,0,1-1.667-1.688,3.419,3.419,0,0,1-.626-1.906,4.978,4.978,0,0,1,1.658-2.756,14.947,14.947,0,0,1,3.644-2.452,24.052,24.052,0,0,1,4.833-1.757,21.784,21.784,0,0,1,5.225-.673,12.91,12.91,0,0,1,5.374,1.034,14.464,14.464,0,0,0-5.709-3.922,20.691,20.691,0,0,0-3.894-1.109,24.548,24.548,0,0,0-4.438-.395,28.933,28.933,0,0,0-6.041.658,34.053,34.053,0,0,0-6.486,2.112,44.864,44.864,0,0,0-13.47,9.4,50.822,50.822,0,0,0,5.194-8.035,12.236,12.236,0,0,0,1.423-5.807,4.32,4.32,0,0,0-.945-2.491,8.109,8.109,0,0,0-2-1.8,14.778,14.778,0,0,0-3.315-1.591,74.867,74.867,0,0,0,11.007-1.812,41.844,41.844,0,0,0,10.5-4.11c7.45-4.213,13.217-10.92,17.631-20.5a25.76,25.76,0,0,0,2.626,6.933,18.091,18.091,0,0,0,4.02,4.909,16.022,16.022,0,0,0,5.154,2.921,18.472,18.472,0,0,0,6.028.967c.675,0,1.369-.034,2.063-.1a13.384,13.384,0,0,1-6.61,1.547,18.386,18.386,0,0,1-3.917-.434,24.59,24.59,0,0,0,5.316,4.844,23.188,23.188,0,0,0,5.406,2.655,33.1,33.1,0,0,0,8.908,1.534c.74.046,1.437.089,1.932.166a12.391,12.391,0,0,1,4.363,1.629,2.309,2.309,0,0,0,1.178.335,2.2,2.2,0,0,0,1.242-.392,2.365,2.365,0,0,0,.823-.979,2.117,2.117,0,0,0,.177-1.152,2.21,2.21,0,0,0-.558-1.18c-.233-.272-.485-.543-.77-.827a4.913,4.913,0,0,0,.321-2.611,11.459,11.459,0,0,0-1.039-4.127,6.329,6.329,0,0,0-1.871-2.361,5.025,5.025,0,0,0-3.073-.979,6.892,6.892,0,0,0-.925.065,6.746,6.746,0,0,0,1.572-5.906,9.5,9.5,0,0,0-2.968-4.632A7.214,7.214,0,0,0,87.2,174.1a9.273,9.273,0,0,0-2.889-.561,3.129,3.129,0,0,0-1.073.159,12.627,12.627,0,0,0-.054-5.839,13.059,13.059,0,0,0-2.486-4.915,20.834,20.834,0,0,0-8.312-5.988,29.139,29.139,0,0,0-10.685-2.24,16.094,16.094,0,0,1,3.379-1.436,13.65,13.65,0,0,1,3.79-.5,21.734,21.734,0,0,1,2.436.146,12.2,12.2,0,0,0,1.359.085,3.069,3.069,0,0,0,2.427-.784c.83-.93.8-2.737.461-5.746-1.327-11.609-2.768-43.8-3.461-59.27l-.016-.352c-.057-1.262-.107-2.39-.151-3.357-.783,10.571-1.5,35.588-1.933,50.535v.018c-.118,4.111-.22,7.662-.288,9.612C68.644,136.362,68.311,36.662,68.363,0ZM52.073,146.726c-.313-3.68-.415-10.149-.3-19.228.094-7.56.342-16.945.716-27.143,1.106-.035,2.234-.052,3.353-.052.532,0,.948,0,1.349.007-.9,11.164-1.705,20.067-2.455,27.218-.958,9.142-1.854,15.6-2.661,19.2Zm39.594,55.08a8.05,8.05,0,0,0-1.258.12,5.728,5.728,0,0,0-3.277,1.524,5.359,5.359,0,0,0-1.509,2.987c-.3,1.836,2.472,9.4,4.153,13.747,2.384,6.162,4.835,11.768,5.324,12.541h0a8.843,8.843,0,0,0,2.753.4,10.41,10.41,0,0,0,2.693-.354,11.18,11.18,0,0,0,3.15-1.408,7.268,7.268,0,0,1-3.1,2.881,9.966,9.966,0,0,1-4.153,1.209,4.679,4.679,0,0,0,3.493,1.485,6.56,6.56,0,0,0,2.558-.556,8.149,8.149,0,0,0,2.3-1.509,7.611,7.611,0,0,0,1.67-2.22,6.2,6.2,0,0,0,.658-2.692,22.065,22.065,0,0,0-.986-4.768c-.688-2.414-1.634-5.168-2.663-7.754-1.57-3.947-4.745-11.027-8.366-14.09h-.058a11.309,11.309,0,0,0-3.94.957A10.861,10.861,0,0,0,87.147,207c1.307-2.705,4.252-4.445,5.457-5.068A3.408,3.408,0,0,0,91.667,201.807ZM75.9,202.976a12.964,12.964,0,0,0-5.474,1.259,7.985,7.985,0,0,0-3.563,2.972c.849,4.005,1.53,9.712,2.251,15.754v.011c.154,1.3.306,2.569.464,3.865.047.384.093.789.142,1.218.56,4.908,1.406,12.323,6.071,14.936a10.328,10.328,0,0,0,5.066,1.123,22.624,22.624,0,0,0,8.055-1.649c-3.106,2.886-7.681,4.348-13.6,4.348h-.157l0,0a10.33,10.33,0,0,0,2.141,1.445,12.77,12.77,0,0,0,5.924,1.45,13.749,13.749,0,0,0,2.5-.235,11.9,11.9,0,0,0,3.6-1.122,3.735,3.735,0,0,0,1.2-.992,2.455,2.455,0,0,0,.492-1.4,54.773,54.773,0,0,0-.871-8.788c-.649-4.164-1.575-8.854-2.607-13.205A111.064,111.064,0,0,0,83.8,211.2c-1.485-3.969-2.915-6.492-4.252-7.5l-.183-.111-.081-.035A9.758,9.758,0,0,0,75.9,202.976Zm-6.4,4.41a6.311,6.311,0,0,1,2.732-2.011,9.771,9.771,0,0,1,3.672-.709,7.878,7.878,0,0,1,3.707.846c-.234.028-.512.04-.91.057l-.069,0-.059,0h-.011A27.365,27.365,0,0,0,69.494,207.386Zm-4.688,4.607h0a9.727,9.727,0,0,1-.21,2.941,4.281,4.281,0,0,1-1.567,2.349c-.284.283-3.426,2.458-7.653,5.246-2.9,1.913-8.355,5.457-12.274,7.7l-.01.455v0a91.6,91.6,0,0,0,.084,9.587c.252,2.732.837,4.561,1.9,5.929h0c.888,1.143,2.742,2.1,5.361,2.759a31.455,31.455,0,0,0,7.368.881,21.869,21.869,0,0,0,2.558-.136,16.827,16.827,0,0,1-7.383,1.487,55.219,55.219,0,0,1-6.578-.5l0,0a33.136,33.136,0,0,0,4.139,1.394,41.011,41.011,0,0,0,4.49.961,36.139,36.139,0,0,0,5.493.435c1.011,0,2.013-.048,2.978-.142a17.913,17.913,0,0,1-5.391,1.535,45.621,45.621,0,0,1-6.813.485,39.272,39.272,0,0,1-6.554-.5,29.91,29.91,0,0,0,6.024,1.859,37.468,37.468,0,0,0,7.443.842,13.922,13.922,0,0,0,5.372-.857,3.667,3.667,0,0,0,2.5-3,195.161,195.161,0,0,0,.633-19.612c-.052-4.434-.222-8.5-.5-12.073A68.729,68.729,0,0,0,64.805,211.993Zm-8.841.087a16.387,16.387,0,0,0-4.52.688,21.345,21.345,0,0,0-4.124,1.686c-2.487,1.334-4.275,2.949-4.557,4.112l0,0-.011.1a3.6,3.6,0,0,0,1.476,2.527,11.011,11.011,0,0,0,4.943,2.106c2.766-1.447,5.435-2.961,7.72-4.381a43.369,43.369,0,0,0,4.789-3.329,1.078,1.078,0,0,0,.436-.713,1.4,1.4,0,0,0-.641-1.218A9.431,9.431,0,0,0,55.964,212.08Zm-16.7,20.295h0l-1.567.863h0c-5.607,3.09-10.036,5.531-13.474,6.227a6.616,6.616,0,0,1-1.29.113c-2.785,0-6.84-1.205-9.75-2.217a15.582,15.582,0,0,0,.023,3.707,9.172,9.172,0,0,0,.937,3.03,10.284,10.284,0,0,0,4.936,4.388,30.62,30.62,0,0,0,4.545,1.728c1.339.4,2.772.748,4.259,1.034a44,44,0,0,0,4.383.629h.005a19.118,19.118,0,0,1-5.271.632,30.866,30.866,0,0,1-9.309-1.4c2.9,2.635,8.431,4.014,12.392,4.014,2.512,0,4.16-.54,4.522-1.48l.013-.033a66.833,66.833,0,0,0,2.365-7.3,75.61,75.61,0,0,0,2.287-13.933Z" transform="translate(170.009 288.113) rotate(180)"/><path class="f" d="M-4534.767-19323.689s-27.676-22.359-32.82-26.654a44.672,44.672,0,0,1-7.736-8.094l-19.715,38.9,14.607,3.449" transform="translate(4600.519 19397.895)"/><path class="f" d="M-4565.266-19259.625c-7.509,5.084-14.74,12.623-24.59,18.6s-16.352,7.836-19.909,8.7c1.221-3.768-5.873-42.475-5.873-42.475s39.809-2.775,44.581-4.705" transform="translate(4639.854 19352.816)"/><path class="f" d="M-4590.872-19218.277l-9.613,31.5-15.153-19.273" transform="translate(4665.46 19317.846)"/><path class="g" d="M-4870.511-19375.873s14.46-31.174,19.646-41.781,6.794-14.361,6.794-14.361l-44.312-10.619a76.671,76.671,0,0,1,1.965,13.629c.492,8.078,0,18.686,0,18.686" transform="translate(5035.631 19445.982)"/><path class="g" d="M-4930.375-19374.979a107.482,107.482,0,0,0,9.15,12.441,114.365,114.365,0,0,0,14.436,13.508l-15.038,10.295" transform="translate(5116.358 19407.344)"/><path class="g" d="M-4897.354-19287.687l28.483,12.674-5.732-28.012-22.751,2.814" transform="translate(5064.279 19366.248)"/></g></g></svg>